999
DXF from OpenSCAD
  0
SECTION
  2
HEADER
  9
$ACADVER
  1
AC1006
  9
$INSBASE
 10
0.0
 20
0.0
 30
0.0
  9
$EXTMIN
 10
-58.4882
 20
-58.4882
  9
$EXTMAX
 10
58.4882
 20
58.4882
  9
$LINMIN
 10
-58.4882
 20
-58.4882
  9
$LINMAX
 10
58.4882
 20
58.4882
  0
ENDSEC
  0
SECTION
  2
TABLES
  0
TABLE
  2
LTYPE
 70
1
  0
LTYPE
  2
CONTINUOUS
 70
64
  3
Solid line
 72
65
 73
0
 40
0.000000
  0
ENDTAB
  0
TABLE
  2
LAYER
 70
6
  0
LAYER
  2
0
 70
64
 62
7
  6
CONTINUOUS
  0
ENDTAB
  0
TABLE
  2
STYLE
 70
0
  0
ENDTAB
  0
ENDSEC
  0
SECTION
  2
BLOCKS
  0
ENDSEC
  0
SECTION
  2
ENTITIES
  0
LWPOLYLINE
100
AcDbEntity
  8
0
100
AcDbPolyline
 90
312
 70
1
 10
-48.2071
 20
-58.3959
 10
-47.975
 20
-58.3592
 10
-46.8309
 20
-58.0845
 10
-46.6074
 20
-58.0119
 10
-45.5205
 20
-57.5616
 10
-45.3111
 20
-57.4549
 10
-44.3079
 20
-56.8402
 10
-44.1178
 20
-56.7021
 10
-43.2109
 20
-55.9275
 10
-43.0658
 20
-55.7855
 10
-13.8275
 20
-23.0032
 10
-13.4875
 20
-22.6775
 10
-13.1008
 20
-22.409
 10
-12.6769
 20
-22.2044
 10
-12.2262
 20
-22.0685
 10
-11.7597
 20
-22.0049
 10
-11.5886
 20
-22
 10
11.5886
 20
-22
 10
12.0579
 20
-22.0369
 10
12.5156
 20
-22.1468
 10
12.9506
 20
-22.327
 10
13.3519
 20
-22.5729
 10
13.7099
 20
-22.8787
 10
13.8275
 20
-23.0032
 10
43.0658
 20
-55.7855
 10
43.2109
 20
-55.9275
 10
44.1178
 20
-56.7021
 10
44.3079
 20
-56.8402
 10
45.3111
 20
-57.4549
 10
45.5205
 20
-57.5616
 10
46.6074
 20
-58.0119
 10
46.8309
 20
-58.0845
 10
47.975
 20
-58.3592
 10
48.2071
 20
-58.3959
 10
49.38
 20
-58.4882
 10
49.615
 20
-58.4882
 10
50.7879
 20
-58.3959
 10
51.02
 20
-58.3592
 10
52.164
 20
-58.0845
 10
52.3875
 20
-58.0119
 10
53.4745
 20
-57.5616
 10
53.6839
 20
-57.4549
 10
54.687
 20
-56.8402
 10
54.8772
 20
-56.7021
 10
55.7718
 20
-55.938
 10
55.938
 20
-55.7718
 10
56.7021
 20
-54.8772
 10
56.8402
 20
-54.687
 10
57.4549
 20
-53.6839
 10
57.5616
 20
-53.4745
 10
58.0119
 20
-52.3875
 10
58.0845
 20
-52.164
 10
58.3592
 20
-51.02
 10
58.3959
 20
-50.7879
 10
58.4882
 20
-49.615
 10
58.4882
 20
-49.38
 10
58.3959
 20
-48.2071
 10
58.3592
 20
-47.975
 10
58.0845
 20
-46.8309
 10
58.0119
 20
-46.6074
 10
57.5616
 20
-45.5205
 10
57.4549
 20
-45.3111
 10
56.8402
 20
-44.3079
 10
56.7021
 20
-44.1178
 10
55.9275
 20
-43.2109
 10
55.7855
 20
-43.0658
 10
37.176
 20
-26.4681
 10
36.8504
 20
-26.1282
 10
36.5819
 20
-25.7415
 10
36.3772
 20
-25.3176
 10
36.2414
 20
-24.8668
 10
36.1777
 20
-24.4004
 10
36.1878
 20
-23.9298
 10
36.2714
 20
-23.4665
 10
36.4265
 20
-23.022
 10
36.6492
 20
-22.6072
 10
36.934
 20
-22.2324
 10
37.2739
 20
-21.9068
 10
37.6606
 20
-21.6383
 10
37.8109
 20
-21.5562
 10
37.9165
 20
-21.5024
 10
38.2506
 20
-21.2977
 10
38.4408
 20
-21.1595
 10
38.7388
 20
-20.905
 10
38.905
 20
-20.7388
 10
39.1595
 20
-20.4408
 10
39.2977
 20
-20.2506
 10
39.5024
 20
-19.9165
 10
39.6091
 20
-19.7071
 10
39.7591
 20
-19.345
 10
39.8317
 20
-19.1215
 10
39.9232
 20
-18.7404
 10
39.96
 20
-18.5082
 10
39.9954
 20
-18.0587
 10
40
 20
-17.9411
 10
40
 20
17.9411
 10
39.9954
 20
18.0587
 10
39.96
 20
18.5082
 10
39.9232
 20
18.7404
 10
39.8317
 20
19.1215
 10
39.7591
 20
19.345
 10
39.6091
 20
19.7071
 10
39.5024
 20
19.9165
 10
39.2977
 20
20.2506
 10
39.1595
 20
20.4408
 10
38.905
 20
20.7388
 10
38.7388
 20
20.905
 10
38.4408
 20
21.1595
 10
38.2506
 20
21.2977
 10
37.9165
 20
21.5024
 10
37.8109
 20
21.5562
 10
37.4095
 20
21.8022
 10
37.0515
 20
22.1079
 10
36.7458
 20
22.4659
 10
36.4998
 20
22.8673
 10
36.3197
 20
23.3022
 10
36.2098
 20
23.7599
 10
36.1729
 20
24.2293
 10
36.2098
 20
24.6986
 10
36.3197
 20
25.1563
 10
36.4998
 20
25.5912
 10
36.7458
 20
25.9926
 10
37.0515
 20
26.3506
 10
37.176
 20
26.4681
 10
55.7855
 20
43.0658
 10
55.9275
 20
43.2109
 10
56.7021
 20
44.1178
 10
56.8402
 20
44.3079
 10
57.4549
 20
45.3111
 10
57.5616
 20
45.5205
 10
58.0119
 20
46.6074
 10
58.0845
 20
46.8309
 10
58.3592
 20
47.975
 10
58.3959
 20
48.2071
 10
58.4882
 20
49.38
 10
58.4882
 20
49.615
 10
58.3959
 20
50.7879
 10
58.3592
 20
51.02
 10
58.0845
 20
52.164
 10
58.0119
 20
52.3875
 10
57.5616
 20
53.4745
 10
57.4549
 20
53.6839
 10
56.8402
 20
54.687
 10
56.7021
 20
54.8772
 10
55.938
 20
55.7718
 10
55.7718
 20
55.938
 10
54.8772
 20
56.7021
 10
54.687
 20
56.8402
 10
53.6839
 20
57.4549
 10
53.4745
 20
57.5616
 10
52.3875
 20
58.0119
 10
52.164
 20
58.0845
 10
51.02
 20
58.3592
 10
50.7879
 20
58.3959
 10
49.615
 20
58.4882
 10
49.38
 20
58.4882
 10
48.2071
 20
58.3959
 10
47.975
 20
58.3592
 10
46.8309
 20
58.0845
 10
46.6074
 20
58.0119
 10
45.5205
 20
57.5616
 10
45.3111
 20
57.4549
 10
44.3079
 20
56.8402
 10
44.1178
 20
56.7021
 10
43.2109
 20
55.9275
 10
43.0658
 20
55.7855
 10
13.8275
 20
23.0032
 10
13.4875
 20
22.6775
 10
13.1008
 20
22.409
 10
12.6769
 20
22.2044
 10
12.2262
 20
22.0685
 10
11.7597
 20
22.0049
 10
11.5886
 20
22
 10
-11.5886
 20
22
 10
-12.0579
 20
22.0369
 10
-12.5156
 20
22.1468
 10
-12.9506
 20
22.327
 10
-13.3519
 20
22.5729
 10
-13.7099
 20
22.8787
 10
-13.8275
 20
23.0032
 10
-43.0658
 20
55.7855
 10
-43.2109
 20
55.9275
 10
-44.1178
 20
56.7021
 10
-44.3079
 20
56.8402
 10
-45.3111
 20
57.4549
 10
-45.5205
 20
57.5616
 10
-46.6074
 20
58.0119
 10
-46.8309
 20
58.0845
 10
-47.975
 20
58.3592
 10
-48.2071
 20
58.3959
 10
-49.38
 20
58.4882
 10
-49.615
 20
58.4882
 10
-50.7879
 20
58.3959
 10
-51.02
 20
58.3592
 10
-52.164
 20
58.0845
 10
-52.3875
 20
58.0119
 10
-53.4745
 20
57.5616
 10
-53.6839
 20
57.4549
 10
-54.687
 20
56.8402
 10
-54.8772
 20
56.7021
 10
-55.7718
 20
55.938
 10
-55.938
 20
55.7718
 10
-56.7021
 20
54.8772
 10
-56.8402
 20
54.687
 10
-57.4549
 20
53.6839
 10
-57.5616
 20
53.4745
 10
-58.0119
 20
52.3875
 10
-58.0845
 20
52.164
 10
-58.3592
 20
51.02
 10
-58.3959
 20
50.7879
 10
-58.4882
 20
49.615
 10
-58.4882
 20
49.38
 10
-58.3959
 20
48.2071
 10
-58.3592
 20
47.975
 10
-58.0845
 20
46.8309
 10
-58.0119
 20
46.6074
 10
-57.5616
 20
45.5205
 10
-57.4549
 20
45.3111
 10
-56.8402
 20
44.3079
 10
-56.7021
 20
44.1178
 10
-55.9275
 20
43.2109
 10
-55.7855
 20
43.0658
 10
-37.176
 20
26.4681
 10
-36.8504
 20
26.1282
 10
-36.5819
 20
25.7415
 10
-36.3772
 20
25.3176
 10
-36.2414
 20
24.8668
 10
-36.1777
 20
24.4004
 10
-36.1878
 20
23.9298
 10
-36.2714
 20
23.4665
 10
-36.4265
 20
23.022
 10
-36.6492
 20
22.6072
 10
-36.934
 20
22.2324
 10
-37.2739
 20
21.9068
 10
-37.6606
 20
21.6383
 10
-37.8109
 20
21.5562
 10
-37.9165
 20
21.5024
 10
-38.2506
 20
21.2977
 10
-38.4408
 20
21.1595
 10
-38.7388
 20
20.905
 10
-38.905
 20
20.7388
 10
-39.1595
 20
20.4408
 10
-39.2977
 20
20.2506
 10
-39.5024
 20
19.9165
 10
-39.6091
 20
19.7071
 10
-39.7591
 20
19.345
 10
-39.8317
 20
19.1215
 10
-39.9232
 20
18.7404
 10
-39.96
 20
18.5082
 10
-39.9954
 20
18.0587
 10
-40
 20
17.9411
 10
-40
 20
-17.9411
 10
-39.9954
 20
-18.0587
 10
-39.96
 20
-18.5082
 10
-39.9232
 20
-18.7404
 10
-39.8317
 20
-19.1215
 10
-39.7591
 20
-19.345
 10
-39.6091
 20
-19.7071
 10
-39.5024
 20
-19.9165
 10
-39.2977
 20
-20.2506
 10
-39.1595
 20
-20.4408
 10
-38.905
 20
-20.7388
 10
-38.7388
 20
-20.905
 10
-38.4408
 20
-21.1595
 10
-38.2506
 20
-21.2977
 10
-37.9165
 20
-21.5024
 10
-37.8109
 20
-21.5562
 10
-37.4095
 20
-21.8022
 10
-37.0515
 20
-22.1079
 10
-36.7458
 20
-22.4659
 10
-36.4998
 20
-22.8673
 10
-36.3197
 20
-23.3022
 10
-36.2098
 20
-23.7599
 10
-36.1729
 20
-24.2293
 10
-36.2098
 20
-24.6986
 10
-36.3197
 20
-25.1563
 10
-36.4998
 20
-25.5912
 10
-36.7458
 20
-25.9926
 10
-37.0515
 20
-26.3506
 10
-37.176
 20
-26.4681
 10
-55.7855
 20
-43.0658
 10
-55.9275
 20
-43.2109
 10
-56.7021
 20
-44.1178
 10
-56.8402
 20
-44.3079
 10
-57.4549
 20
-45.3111
 10
-57.5616
 20
-45.5205
 10
-58.0119
 20
-46.6074
 10
-58.0845
 20
-46.8309
 10
-58.3592
 20
-47.975
 10
-58.3959
 20
-48.2071
 10
-58.4882
 20
-49.38
 10
-58.4882
 20
-49.615
 10
-58.3959
 20
-50.7879
 10
-58.3592
 20
-51.02
 10
-58.0845
 20
-52.164
 10
-58.0119
 20
-52.3875
 10
-57.5616
 20
-53.4745
 10
-57.4549
 20
-53.6839
 10
-56.8402
 20
-54.687
 10
-56.7021
 20
-54.8772
 10
-55.938
 20
-55.7718
 10
-55.7718
 20
-55.938
 10
-54.8772
 20
-56.7021
 10
-54.687
 20
-56.8402
 10
-53.6839
 20
-57.4549
 10
-53.4745
 20
-57.5616
 10
-52.3875
 20
-58.0119
 10
-52.164
 20
-58.0845
 10
-51.02
 20
-58.3592
 10
-50.7879
 20
-58.3959
 10
-49.615
 20
-58.4882
 10
-49.38
 20
-58.4882
  0
LWPOLYLINE
100
AcDbEntity
  8
0
100
AcDbPolyline
 90
16
 70
1
 10
-49.9184
 20
52.9812
 10
-50.2753
 20
53.2197
 10
-50.5137
 20
53.5765
 10
-50.5975
 20
53.9975
 10
-50.5137
 20
54.4184
 10
-50.2753
 20
54.7753
 10
-49.9184
 20
55.0137
 10
-49.4975
 20
55.0975
 10
-49.0765
 20
55.0137
 10
-48.7197
 20
54.7753
 10
-48.4812
 20
54.4184
 10
-48.3975
 20
53.9975
 10
-48.4812
 20
53.5765
 10
-48.7197
 20
53.2197
 10
-49.0765
 20
52.9812
 10
-49.4975
 20
52.8975
  0
LWPOLYLINE
100
AcDbEntity
  8
0
100
AcDbPolyline
 90
16
 70
1
 10
49.0765
 20
52.9812
 10
48.7197
 20
53.2197
 10
48.4812
 20
53.5765
 10
48.3975
 20
53.9975
 10
48.4812
 20
54.4184
 10
48.7197
 20
54.7753
 10
49.0765
 20
55.0137
 10
49.4975
 20
55.0975
 10
49.9184
 20
55.0137
 10
50.2753
 20
54.7753
 10
50.5137
 20
54.4184
 10
50.5975
 20
53.9975
 10
50.5137
 20
53.5765
 10
50.2753
 20
53.2197
 10
49.9184
 20
52.9812
 10
49.4975
 20
52.8975
  0
LWPOLYLINE
100
AcDbEntity
  8
0
100
AcDbPolyline
 90
40
 70
1
 10
-49.8103
 20
47.5221
 10
-50.1155
 20
47.5954
 10
-50.4055
 20
47.7155
 10
-50.673
 20
47.8794
 10
-50.9117
 20
48.0833
 10
-51.1155
 20
48.3219
 10
-51.2795
 20
48.5895
 10
-51.3996
 20
48.8794
 10
-51.4729
 20
49.1846
 10
-51.4975
 20
49.4975
 10
-51.4729
 20
49.8103
 10
-51.3996
 20
50.1155
 10
-51.2795
 20
50.4055
 10
-51.1155
 20
50.673
 10
-50.9117
 20
50.9117
 10
-50.673
 20
51.1155
 10
-50.4055
 20
51.2795
 10
-50.1155
 20
51.3996
 10
-49.8103
 20
51.4729
 10
-49.4975
 20
51.4975
 10
-49.1846
 20
51.4729
 10
-48.8794
 20
51.3996
 10
-48.5895
 20
51.2795
 10
-48.3219
 20
51.1155
 10
-48.0833
 20
50.9117
 10
-47.8794
 20
50.673
 10
-47.7155
 20
50.4055
 10
-47.5954
 20
50.1155
 10
-47.5221
 20
49.8103
 10
-47.4975
 20
49.4975
 10
-47.5221
 20
49.1846
 10
-47.5954
 20
48.8794
 10
-47.7155
 20
48.5895
 10
-47.8794
 20
48.3219
 10
-48.0833
 20
48.0833
 10
-48.3219
 20
47.8794
 10
-48.5895
 20
47.7155
 10
-48.8794
 20
47.5954
 10
-49.1846
 20
47.5221
 10
-49.4975
 20
47.4975
  0
LWPOLYLINE
100
AcDbEntity
  8
0
100
AcDbPolyline
 90
40
 70
1
 10
49.1846
 20
47.5221
 10
48.8794
 20
47.5954
 10
48.5895
 20
47.7155
 10
48.3219
 20
47.8794
 10
48.0833
 20
48.0833
 10
47.8794
 20
48.3219
 10
47.7155
 20
48.5895
 10
47.5954
 20
48.8794
 10
47.5221
 20
49.1846
 10
47.4975
 20
49.4975
 10
47.5221
 20
49.8103
 10
47.5954
 20
50.1155
 10
47.7155
 20
50.4055
 10
47.8794
 20
50.673
 10
48.0833
 20
50.9117
 10
48.3219
 20
51.1155
 10
48.5895
 20
51.2795
 10
48.8794
 20
51.3996
 10
49.1846
 20
51.4729
 10
49.4975
 20
51.4975
 10
49.8103
 20
51.4729
 10
50.1155
 20
51.3996
 10
50.4055
 20
51.2795
 10
50.673
 20
51.1155
 10
50.9117
 20
50.9117
 10
51.1155
 20
50.673
 10
51.2795
 20
50.4055
 10
51.3996
 20
50.1155
 10
51.4729
 20
49.8103
 10
51.4975
 20
49.4975
 10
51.4729
 20
49.1846
 10
51.3996
 20
48.8794
 10
51.2795
 20
48.5895
 10
51.1155
 20
48.3219
 10
50.9117
 20
48.0833
 10
50.673
 20
47.8794
 10
50.4055
 20
47.7155
 10
50.1155
 20
47.5954
 10
49.8103
 20
47.5221
 10
49.4975
 20
47.4975
  0
LWPOLYLINE
100
AcDbEntity
  8
0
100
AcDbPolyline
 90
16
 70
1
 10
-54.4184
 20
48.4812
 10
-54.7753
 20
48.7197
 10
-55.0137
 20
49.0765
 10
-55.0975
 20
49.4975
 10
-55.0137
 20
49.9184
 10
-54.7753
 20
50.2753
 10
-54.4184
 20
50.5137
 10
-53.9975
 20
50.5975
 10
-53.5765
 20
50.5137
 10
-53.2197
 20
50.2753
 10
-52.9812
 20
49.9184
 10
-52.8975
 20
49.4975
 10
-52.9812
 20
49.0765
 10
-53.2197
 20
48.7197
 10
-53.5765
 20
48.4812
 10
-53.9975
 20
48.3975
  0
LWPOLYLINE
100
AcDbEntity
  8
0
100
AcDbPolyline
 90
16
 70
1
 10
-45.4184
 20
48.4812
 10
-45.7753
 20
48.7197
 10
-46.0137
 20
49.0765
 10
-46.0975
 20
49.4975
 10
-46.0137
 20
49.9184
 10
-45.7753
 20
50.2753
 10
-45.4184
 20
50.5137
 10
-44.9975
 20
50.5975
 10
-44.5765
 20
50.5137
 10
-44.2197
 20
50.2753
 10
-43.9812
 20
49.9184
 10
-43.8975
 20
49.4975
 10
-43.9812
 20
49.0765
 10
-44.2197
 20
48.7197
 10
-44.5765
 20
48.4812
 10
-44.9975
 20
48.3975
  0
LWPOLYLINE
100
AcDbEntity
  8
0
100
AcDbPolyline
 90
16
 70
1
 10
44.5765
 20
48.4812
 10
44.2197
 20
48.7197
 10
43.9812
 20
49.0765
 10
43.8975
 20
49.4975
 10
43.9812
 20
49.9184
 10
44.2197
 20
50.2753
 10
44.5765
 20
50.5137
 10
44.9975
 20
50.5975
 10
45.4184
 20
50.5137
 10
45.7753
 20
50.2753
 10
46.0137
 20
49.9184
 10
46.0975
 20
49.4975
 10
46.0137
 20
49.0765
 10
45.7753
 20
48.7197
 10
45.4184
 20
48.4812
 10
44.9975
 20
48.3975
  0
LWPOLYLINE
100
AcDbEntity
  8
0
100
AcDbPolyline
 90
16
 70
1
 10
53.5765
 20
48.4812
 10
53.2197
 20
48.7197
 10
52.9812
 20
49.0765
 10
52.8975
 20
49.4975
 10
52.9812
 20
49.9184
 10
53.2197
 20
50.2753
 10
53.5765
 20
50.5137
 10
53.9975
 20
50.5975
 10
54.4184
 20
50.5137
 10
54.7753
 20
50.2753
 10
55.0137
 20
49.9184
 10
55.0975
 20
49.4975
 10
55.0137
 20
49.0765
 10
54.7753
 20
48.7197
 10
54.4184
 20
48.4812
 10
53.9975
 20
48.3975
  0
LWPOLYLINE
100
AcDbEntity
  8
0
100
AcDbPolyline
 90
16
 70
1
 10
-49.9184
 20
43.9812
 10
-50.2753
 20
44.2197
 10
-50.5137
 20
44.5765
 10
-50.5975
 20
44.9975
 10
-50.5137
 20
45.4184
 10
-50.2753
 20
45.7753
 10
-49.9184
 20
46.0137
 10
-49.4975
 20
46.0975
 10
-49.0765
 20
46.0137
 10
-48.7197
 20
45.7753
 10
-48.4812
 20
45.4184
 10
-48.3975
 20
44.9975
 10
-48.4812
 20
44.5765
 10
-48.7197
 20
44.2197
 10
-49.0765
 20
43.9812
 10
-49.4975
 20
43.8975
  0
LWPOLYLINE
100
AcDbEntity
  8
0
100
AcDbPolyline
 90
16
 70
1
 10
49.0765
 20
43.9812
 10
48.7197
 20
44.2197
 10
48.4812
 20
44.5765
 10
48.3975
 20
44.9975
 10
48.4812
 20
45.4184
 10
48.7197
 20
45.7753
 10
49.0765
 20
46.0137
 10
49.4975
 20
46.0975
 10
49.9184
 20
46.0137
 10
50.2753
 20
45.7753
 10
50.5137
 20
45.4184
 10
50.5975
 20
44.9975
 10
50.5137
 20
44.5765
 10
50.2753
 20
44.2197
 10
49.9184
 20
43.9812
 10
49.4975
 20
43.8975
  0
LWPOLYLINE
100
AcDbEntity
  8
0
100
AcDbPolyline
 90
12
 70
1
 10
-37.8539
 20
40.763
 10
-38.037
 20
40.946
 10
-38.1039
 20
41.196
 10
-38.037
 20
41.446
 10
-37.8539
 20
41.6291
 10
-37.6039
 20
41.696
 10
-37.3539
 20
41.6291
 10
-37.1709
 20
41.446
 10
-37.1039
 20
41.196
 10
-37.1709
 20
40.946
 10
-37.3539
 20
40.763
 10
-37.6039
 20
40.696
  0
LWPOLYLINE
100
AcDbEntity
  8
0
100
AcDbPolyline
 90
12
 70
1
 10
37.3539
 20
40.763
 10
37.1709
 20
40.946
 10
37.1039
 20
41.196
 10
37.1709
 20
41.446
 10
37.3539
 20
41.6291
 10
37.6039
 20
41.696
 10
37.8539
 20
41.6291
 10
38.037
 20
41.446
 10
38.1039
 20
41.196
 10
38.037
 20
40.946
 10
37.8539
 20
40.763
 10
37.6039
 20
40.696
  0
LWPOLYLINE
100
AcDbEntity
  8
0
100
AcDbPolyline
 90
12
 70
1
 10
-39.65
 20
38.967
 10
-39.833
 20
39.15
 10
-39.9
 20
39.4
 10
-39.833
 20
39.65
 10
-39.65
 20
39.833
 10
-39.4
 20
39.9
 10
-39.15
 20
39.833
 10
-38.967
 20
39.65
 10
-38.9
 20
39.4
 10
-38.967
 20
39.15
 10
-39.15
 20
38.967
 10
-39.4
 20
38.9
  0
LWPOLYLINE
100
AcDbEntity
  8
0
100
AcDbPolyline
 90
12
 70
1
 10
39.15
 20
38.967
 10
38.967
 20
39.15
 10
38.9
 20
39.4
 10
38.967
 20
39.65
 10
39.15
 20
39.833
 10
39.4
 20
39.9
 10
39.65
 20
39.833
 10
39.833
 20
39.65
 10
39.9
 20
39.4
 10
39.833
 20
39.15
 10
39.65
 20
38.967
 10
39.4
 20
38.9
  0
LWPOLYLINE
100
AcDbEntity
  8
0
100
AcDbPolyline
 90
12
 70
1
 10
-41.446
 20
37.1709
 10
-41.6291
 20
37.3539
 10
-41.696
 20
37.6039
 10
-41.6291
 20
37.8539
 10
-41.446
 20
38.037
 10
-41.196
 20
38.1039
 10
-40.946
 20
38.037
 10
-40.763
 20
37.8539
 10
-40.696
 20
37.6039
 10
-40.763
 20
37.3539
 10
-40.946
 20
37.1709
 10
-41.196
 20
37.1039
  0
LWPOLYLINE
100
AcDbEntity
  8
0
100
AcDbPolyline
 90
12
 70
1
 10
40.946
 20
37.1709
 10
40.763
 20
37.3539
 10
40.696
 20
37.6039
 10
40.763
 20
37.8539
 10
40.946
 20
38.037
 10
41.196
 20
38.1039
 10
41.446
 20
38.037
 10
41.6291
 20
37.8539
 10
41.696
 20
37.6039
 10
41.6291
 20
37.3539
 10
41.446
 20
37.1709
 10
41.196
 20
37.1039
  0
LWPOLYLINE
100
AcDbEntity
  8
0
100
AcDbPolyline
 90
12
 70
1
 10
-24.624
 20
29.3291
 10
-24.807
 20
29.5121
 10
-24.874
 20
29.7621
 10
-24.807
 20
30.0121
 10
-24.624
 20
30.1951
 10
-24.374
 20
30.2621
 10
-24.124
 20
30.1951
 10
-23.941
 20
30.0121
 10
-23.874
 20
29.7621
 10
-23.941
 20
29.5121
 10
-24.124
 20
29.3291
 10
-24.374
 20
29.2621
  0
LWPOLYLINE
100
AcDbEntity
  8
0
100
AcDbPolyline
 90
12
 70
1
 10
24.124
 20
29.3291
 10
23.941
 20
29.5121
 10
23.874
 20
29.7621
 10
23.941
 20
30.0121
 10
24.124
 20
30.1951
 10
24.374
 20
30.2621
 10
24.624
 20
30.1951
 10
24.807
 20
30.0121
 10
24.874
 20
29.7621
 10
24.807
 20
29.5121
 10
24.624
 20
29.3291
 10
24.374
 20
29.2621
  0
LWPOLYLINE
100
AcDbEntity
  8
0
100
AcDbPolyline
 90
12
 70
1
 10
-26.42
 20
27.5331
 10
-26.603
 20
27.7161
 10
-26.67
 20
27.9661
 10
-26.603
 20
28.2161
 10
-26.42
 20
28.3991
 10
-26.17
 20
28.4661
 10
-25.92
 20
28.3991
 10
-25.737
 20
28.2161
 10
-25.67
 20
27.9661
 10
-25.737
 20
27.7161
 10
-25.92
 20
27.5331
 10
-26.17
 20
27.4661
  0
LWPOLYLINE
100
AcDbEntity
  8
0
100
AcDbPolyline
 90
12
 70
1
 10
25.92
 20
27.5331
 10
25.737
 20
27.7161
 10
25.67
 20
27.9661
 10
25.737
 20
28.2161
 10
25.92
 20
28.3991
 10
26.17
 20
28.4661
 10
26.42
 20
28.3991
 10
26.603
 20
28.2161
 10
26.67
 20
27.9661
 10
26.603
 20
27.7161
 10
26.42
 20
27.5331
 10
26.17
 20
27.4661
  0
LWPOLYLINE
100
AcDbEntity
  8
0
100
AcDbPolyline
 90
12
 70
1
 10
-28.2161
 20
25.737
 10
-28.3991
 20
25.92
 10
-28.4661
 20
26.17
 10
-28.3991
 20
26.42
 10
-28.2161
 20
26.603
 10
-27.9661
 20
26.67
 10
-27.7161
 20
26.603
 10
-27.5331
 20
26.42
 10
-27.4661
 20
26.17
 10
-27.5331
 20
25.92
 10
-27.7161
 20
25.737
 10
-27.9661
 20
25.67
  0
LWPOLYLINE
100
AcDbEntity
  8
0
100
AcDbPolyline
 90
12
 70
1
 10
27.7161
 20
25.737
 10
27.5331
 20
25.92
 10
27.4661
 20
26.17
 10
27.5331
 20
26.42
 10
27.7161
 20
26.603
 10
27.9661
 20
26.67
 10
28.2161
 20
26.603
 10
28.3991
 20
26.42
 10
28.4661
 20
26.17
 10
28.3991
 20
25.92
 10
28.2161
 20
25.737
 10
27.9661
 20
25.67
  0
LWPOLYLINE
100
AcDbEntity
  8
0
100
AcDbPolyline
 90
12
 70
1
 10
-30.0121
 20
23.941
 10
-30.1951
 20
24.124
 10
-30.2621
 20
24.374
 10
-30.1951
 20
24.624
 10
-30.0121
 20
24.807
 10
-29.7621
 20
24.874
 10
-29.5121
 20
24.807
 10
-29.3291
 20
24.624
 10
-29.2621
 20
24.374
 10
-29.3291
 20
24.124
 10
-29.5121
 20
23.941
 10
-29.7621
 20
23.874
  0
LWPOLYLINE
100
AcDbEntity
  8
0
100
AcDbPolyline
 90
12
 70
1
 10
29.5121
 20
23.941
 10
29.3291
 20
24.124
 10
29.2621
 20
24.374
 10
29.3291
 20
24.624
 10
29.5121
 20
24.807
 10
29.7621
 20
24.874
 10
30.0121
 20
24.807
 10
30.1951
 20
24.624
 10
30.2621
 20
24.374
 10
30.1951
 20
24.124
 10
30.0121
 20
23.941
 10
29.7621
 20
23.874
  0
LWPOLYLINE
100
AcDbEntity
  8
0
100
AcDbPolyline
 90
12
 70
1
 10
-7.2
 20
18.6536
 10
-7.34641
 20
18.8
 10
-7.4
 20
19
 10
-7.34641
 20
19.2
 10
-7.2
 20
19.3464
 10
-7
 20
19.4
 10
-6.8
 20
19.3464
 10
-6.65359
 20
19.2
 10
-6.6
 20
19
 10
-6.65359
 20
18.8
 10
-6.8
 20
18.6536
 10
-7
 20
18.6
  0
LWPOLYLINE
100
AcDbEntity
  8
0
100
AcDbPolyline
 90
12
 70
1
 10
-5.2
 20
18.6536
 10
-5.34641
 20
18.8
 10
-5.4
 20
19
 10
-5.34641
 20
19.2
 10
-5.2
 20
19.3464
 10
-5
 20
19.4
 10
-4.8
 20
19.3464
 10
-4.65359
 20
19.2
 10
-4.6
 20
19
 10
-4.65359
 20
18.8
 10
-4.8
 20
18.6536
 10
-5
 20
18.6
  0
LWPOLYLINE
100
AcDbEntity
  8
0
100
AcDbPolyline
 90
16
 70
1
 10
-24.421
 20
16.4837
 10
-24.7778
 20
16.7222
 10
-25.0163
 20
17.079
 10
-25.1
 20
17.5
 10
-25.0163
 20
17.921
 10
-24.7778
 20
18.2778
 10
-24.421
 20
18.5163
 10
-24
 20
18.6
 10
-23.579
 20
18.5163
 10
-23.2222
 20
18.2778
 10
-22.9837
 20
17.921
 10
-22.9
 20
17.5
 10
-22.9837
 20
17.079
 10
-23.2222
 20
16.7222
 10
-23.579
 20
16.4837
 10
-24
 20
16.4
  0
LWPOLYLINE
100
AcDbEntity
  8
0
100
AcDbPolyline
 90
16
 70
1
 10
23.579
 20
16.4837
 10
23.2222
 20
16.7222
 10
22.9837
 20
17.079
 10
22.9
 20
17.5
 10
22.9837
 20
17.921
 10
23.2222
 20
18.2778
 10
23.579
 20
18.5163
 10
24
 20
18.6
 10
24.421
 20
18.5163
 10
24.7778
 20
18.2778
 10
25.0163
 20
17.921
 10
25.1
 20
17.5
 10
25.0163
 20
17.079
 10
24.7778
 20
16.7222
 10
24.421
 20
16.4837
 10
24
 20
16.4
  0
LWPOLYLINE
100
AcDbEntity
  8
0
100
AcDbPolyline
 90
20
 70
1
 10
-15.6672
 20
13.9661
 10
-16.0435
 20
14.1578
 10
-16.3422
 20
14.4565
 10
-16.5339
 20
14.8328
 10
-16.6
 20
15.25
 10
-16.5339
 20
15.6672
 10
-16.3422
 20
16.0435
 10
-16.0435
 20
16.3422
 10
-15.6672
 20
16.5339
 10
-15.25
 20
16.6
 10
-14.8328
 20
16.5339
 10
-14.4565
 20
16.3422
 10
-14.1578
 20
16.0435
 10
-13.9661
 20
15.6672
 10
-13.9
 20
15.25
 10
-13.9661
 20
14.8328
 10
-14.1578
 20
14.4565
 10
-14.4565
 20
14.1578
 10
-14.8328
 20
13.9661
 10
-15.25
 20
13.9
  0
LWPOLYLINE
100
AcDbEntity
  8
0
100
AcDbPolyline
 90
20
 70
1
 10
14.8328
 20
13.9661
 10
14.4565
 20
14.1578
 10
14.1578
 20
14.4565
 10
13.9661
 20
14.8328
 10
13.9
 20
15.25
 10
13.9661
 20
15.6672
 10
14.1578
 20
16.0435
 10
14.4565
 20
16.3422
 10
14.8328
 20
16.5339
 10
15.25
 20
16.6
 10
15.6672
 20
16.5339
 10
16.0435
 20
16.3422
 10
16.3422
 20
16.0435
 10
16.5339
 20
15.6672
 10
16.6
 20
15.25
 10
16.5339
 20
14.8328
 10
16.3422
 20
14.4565
 10
16.0435
 20
14.1578
 10
15.6672
 20
13.9661
 10
15.25
 20
13.9
  0
LWPOLYLINE
100
AcDbEntity
  8
0
100
AcDbPolyline
 90
12
 70
1
 10
-25.2
 20
7.65359
 10
-25.3464
 20
7.8
 10
-25.4
 20
8
 10
-25.3464
 20
8.2
 10
-25.2
 20
8.34641
 10
-25
 20
8.4
 10
-24.8
 20
8.34641
 10
-24.6536
 20
8.2
 10
-24.6
 20
8
 10
-24.6536
 20
7.8
 10
-24.8
 20
7.65359
 10
-25
 20
7.6
  0
LWPOLYLINE
100
AcDbEntity
  8
0
100
AcDbPolyline
 90
12
 70
1
 10
-25.2
 20
5.65359
 10
-25.3464
 20
5.8
 10
-25.4
 20
6
 10
-25.3464
 20
6.2
 10
-25.2
 20
6.34641
 10
-25
 20
6.4
 10
-24.8
 20
6.34641
 10
-24.6536
 20
6.2
 10
-24.6
 20
6
 10
-24.6536
 20
5.8
 10
-24.8
 20
5.65359
 10
-25
 20
5.6
  0
LWPOLYLINE
100
AcDbEntity
  8
0
100
AcDbPolyline
 90
20
 70
1
 10
-15.6672
 20
-16.5339
 10
-16.0435
 20
-16.3422
 10
-16.3422
 20
-16.0435
 10
-16.5339
 20
-15.6672
 10
-16.6
 20
-15.25
 10
-16.5339
 20
-14.8328
 10
-16.3422
 20
-14.4565
 10
-16.0435
 20
-14.1578
 10
-15.6672
 20
-13.9661
 10
-15.25
 20
-13.9
 10
-14.8328
 20
-13.9661
 10
-14.4565
 20
-14.1578
 10
-14.1578
 20
-14.4565
 10
-13.9661
 20
-14.8328
 10
-13.9
 20
-15.25
 10
-13.9661
 20
-15.6672
 10
-14.1578
 20
-16.0435
 10
-14.4565
 20
-16.3422
 10
-14.8328
 20
-16.5339
 10
-15.25
 20
-16.6
  0
LWPOLYLINE
100
AcDbEntity
  8
0
100
AcDbPolyline
 90
20
 70
1
 10
14.8328
 20
-16.5339
 10
14.4565
 20
-16.3422
 10
14.1578
 20
-16.0435
 10
13.9661
 20
-15.6672
 10
13.9
 20
-15.25
 10
13.9661
 20
-14.8328
 10
14.1578
 20
-14.4565
 10
14.4565
 20
-14.1578
 10
14.8328
 20
-13.9661
 10
15.25
 20
-13.9
 10
15.6672
 20
-13.9661
 10
16.0435
 20
-14.1578
 10
16.3422
 20
-14.4565
 10
16.5339
 20
-14.8328
 10
16.6
 20
-15.25
 10
16.5339
 20
-15.6672
 10
16.3422
 20
-16.0435
 10
16.0435
 20
-16.3422
 10
15.6672
 20
-16.5339
 10
15.25
 20
-16.6
  0
LWPOLYLINE
100
AcDbEntity
  8
0
100
AcDbPolyline
 90
16
 70
1
 10
-24.421
 20
-18.5163
 10
-24.7778
 20
-18.2778
 10
-25.0163
 20
-17.921
 10
-25.1
 20
-17.5
 10
-25.0163
 20
-17.079
 10
-24.7778
 20
-16.7222
 10
-24.421
 20
-16.4837
 10
-24
 20
-16.4
 10
-23.579
 20
-16.4837
 10
-23.2222
 20
-16.7222
 10
-22.9837
 20
-17.079
 10
-22.9
 20
-17.5
 10
-22.9837
 20
-17.921
 10
-23.2222
 20
-18.2778
 10
-23.579
 20
-18.5163
 10
-24
 20
-18.6
  0
LWPOLYLINE
100
AcDbEntity
  8
0
100
AcDbPolyline
 90
16
 70
1
 10
23.579
 20
-18.5163
 10
23.2222
 20
-18.2778
 10
22.9837
 20
-17.921
 10
22.9
 20
-17.5
 10
22.9837
 20
-17.079
 10
23.2222
 20
-16.7222
 10
23.579
 20
-16.4837
 10
24
 20
-16.4
 10
24.421
 20
-16.4837
 10
24.7778
 20
-16.7222
 10
25.0163
 20
-17.079
 10
25.1
 20
-17.5
 10
25.0163
 20
-17.921
 10
24.7778
 20
-18.2778
 10
24.421
 20
-18.5163
 10
24
 20
-18.6
  0
LWPOLYLINE
100
AcDbEntity
  8
0
100
AcDbPolyline
 90
12
 70
1
 10
-30.0121
 20
-24.807
 10
-30.1951
 20
-24.624
 10
-30.2621
 20
-24.374
 10
-30.1951
 20
-24.124
 10
-30.0121
 20
-23.941
 10
-29.7621
 20
-23.874
 10
-29.5121
 20
-23.941
 10
-29.3291
 20
-24.124
 10
-29.2621
 20
-24.374
 10
-29.3291
 20
-24.624
 10
-29.5121
 20
-24.807
 10
-29.7621
 20
-24.874
  0
LWPOLYLINE
100
AcDbEntity
  8
0
100
AcDbPolyline
 90
12
 70
1
 10
29.5121
 20
-24.807
 10
29.3291
 20
-24.624
 10
29.2621
 20
-24.374
 10
29.3291
 20
-24.124
 10
29.5121
 20
-23.941
 10
29.7621
 20
-23.874
 10
30.0121
 20
-23.941
 10
30.1951
 20
-24.124
 10
30.2621
 20
-24.374
 10
30.1951
 20
-24.624
 10
30.0121
 20
-24.807
 10
29.7621
 20
-24.874
  0
LWPOLYLINE
100
AcDbEntity
  8
0
100
AcDbPolyline
 90
12
 70
1
 10
-28.2161
 20
-26.603
 10
-28.3991
 20
-26.42
 10
-28.4661
 20
-26.17
 10
-28.3991
 20
-25.92
 10
-28.2161
 20
-25.737
 10
-27.9661
 20
-25.67
 10
-27.7161
 20
-25.737
 10
-27.5331
 20
-25.92
 10
-27.4661
 20
-26.17
 10
-27.5331
 20
-26.42
 10
-27.7161
 20
-26.603
 10
-27.9661
 20
-26.67
  0
LWPOLYLINE
100
AcDbEntity
  8
0
100
AcDbPolyline
 90
12
 70
1
 10
27.7161
 20
-26.603
 10
27.5331
 20
-26.42
 10
27.4661
 20
-26.17
 10
27.5331
 20
-25.92
 10
27.7161
 20
-25.737
 10
27.9661
 20
-25.67
 10
28.2161
 20
-25.737
 10
28.3991
 20
-25.92
 10
28.4661
 20
-26.17
 10
28.3991
 20
-26.42
 10
28.2161
 20
-26.603
 10
27.9661
 20
-26.67
  0
LWPOLYLINE
100
AcDbEntity
  8
0
100
AcDbPolyline
 90
12
 70
1
 10
-26.42
 20
-28.3991
 10
-26.603
 20
-28.2161
 10
-26.67
 20
-27.9661
 10
-26.603
 20
-27.7161
 10
-26.42
 20
-27.5331
 10
-26.17
 20
-27.4661
 10
-25.92
 20
-27.5331
 10
-25.737
 20
-27.7161
 10
-25.67
 20
-27.9661
 10
-25.737
 20
-28.2161
 10
-25.92
 20
-28.3991
 10
-26.17
 20
-28.4661
  0
LWPOLYLINE
100
AcDbEntity
  8
0
100
AcDbPolyline
 90
12
 70
1
 10
25.92
 20
-28.3991
 10
25.737
 20
-28.2161
 10
25.67
 20
-27.9661
 10
25.737
 20
-27.7161
 10
25.92
 20
-27.5331
 10
26.17
 20
-27.4661
 10
26.42
 20
-27.5331
 10
26.603
 20
-27.7161
 10
26.67
 20
-27.9661
 10
26.603
 20
-28.2161
 10
26.42
 20
-28.3991
 10
26.17
 20
-28.4661
  0
LWPOLYLINE
100
AcDbEntity
  8
0
100
AcDbPolyline
 90
12
 70
1
 10
-24.624
 20
-30.1951
 10
-24.807
 20
-30.0121
 10
-24.874
 20
-29.7621
 10
-24.807
 20
-29.5121
 10
-24.624
 20
-29.3291
 10
-24.374
 20
-29.2621
 10
-24.124
 20
-29.3291
 10
-23.941
 20
-29.5121
 10
-23.874
 20
-29.7621
 10
-23.941
 20
-30.0121
 10
-24.124
 20
-30.1951
 10
-24.374
 20
-30.2621
  0
LWPOLYLINE
100
AcDbEntity
  8
0
100
AcDbPolyline
 90
12
 70
1
 10
24.124
 20
-30.1951
 10
23.941
 20
-30.0121
 10
23.874
 20
-29.7621
 10
23.941
 20
-29.5121
 10
24.124
 20
-29.3291
 10
24.374
 20
-29.2621
 10
24.624
 20
-29.3291
 10
24.807
 20
-29.5121
 10
24.874
 20
-29.7621
 10
24.807
 20
-30.0121
 10
24.624
 20
-30.1951
 10
24.374
 20
-30.2621
  0
LWPOLYLINE
100
AcDbEntity
  8
0
100
AcDbPolyline
 90
12
 70
1
 10
-41.446
 20
-38.037
 10
-41.6291
 20
-37.8539
 10
-41.696
 20
-37.6039
 10
-41.6291
 20
-37.3539
 10
-41.446
 20
-37.1709
 10
-41.196
 20
-37.1039
 10
-40.946
 20
-37.1709
 10
-40.763
 20
-37.3539
 10
-40.696
 20
-37.6039
 10
-40.763
 20
-37.8539
 10
-40.946
 20
-38.037
 10
-41.196
 20
-38.1039
  0
LWPOLYLINE
100
AcDbEntity
  8
0
100
AcDbPolyline
 90
12
 70
1
 10
40.946
 20
-38.037
 10
40.763
 20
-37.8539
 10
40.696
 20
-37.6039
 10
40.763
 20
-37.3539
 10
40.946
 20
-37.1709
 10
41.196
 20
-37.1039
 10
41.446
 20
-37.1709
 10
41.6291
 20
-37.3539
 10
41.696
 20
-37.6039
 10
41.6291
 20
-37.8539
 10
41.446
 20
-38.037
 10
41.196
 20
-38.1039
  0
LWPOLYLINE
100
AcDbEntity
  8
0
100
AcDbPolyline
 90
12
 70
1
 10
-39.65
 20
-39.833
 10
-39.833
 20
-39.65
 10
-39.9
 20
-39.4
 10
-39.833
 20
-39.15
 10
-39.65
 20
-38.967
 10
-39.4
 20
-38.9
 10
-39.15
 20
-38.967
 10
-38.967
 20
-39.15
 10
-38.9
 20
-39.4
 10
-38.967
 20
-39.65
 10
-39.15
 20
-39.833
 10
-39.4
 20
-39.9
  0
LWPOLYLINE
100
AcDbEntity
  8
0
100
AcDbPolyline
 90
12
 70
1
 10
39.15
 20
-39.833
 10
38.967
 20
-39.65
 10
38.9
 20
-39.4
 10
38.967
 20
-39.15
 10
39.15
 20
-38.967
 10
39.4
 20
-38.9
 10
39.65
 20
-38.967
 10
39.833
 20
-39.15
 10
39.9
 20
-39.4
 10
39.833
 20
-39.65
 10
39.65
 20
-39.833
 10
39.4
 20
-39.9
  0
LWPOLYLINE
100
AcDbEntity
  8
0
100
AcDbPolyline
 90
12
 70
1
 10
-37.8539
 20
-41.6291
 10
-38.037
 20
-41.446
 10
-38.1039
 20
-41.196
 10
-38.037
 20
-40.946
 10
-37.8539
 20
-40.763
 10
-37.6039
 20
-40.696
 10
-37.3539
 20
-40.763
 10
-37.1709
 20
-40.946
 10
-37.1039
 20
-41.196
 10
-37.1709
 20
-41.446
 10
-37.3539
 20
-41.6291
 10
-37.6039
 20
-41.696
  0
LWPOLYLINE
100
AcDbEntity
  8
0
100
AcDbPolyline
 90
12
 70
1
 10
37.3539
 20
-41.6291
 10
37.1709
 20
-41.446
 10
37.1039
 20
-41.196
 10
37.1709
 20
-40.946
 10
37.3539
 20
-40.763
 10
37.6039
 20
-40.696
 10
37.8539
 20
-40.763
 10
38.037
 20
-40.946
 10
38.1039
 20
-41.196
 10
38.037
 20
-41.446
 10
37.8539
 20
-41.6291
 10
37.6039
 20
-41.696
  0
LWPOLYLINE
100
AcDbEntity
  8
0
100
AcDbPolyline
 90
16
 70
1
 10
-49.9184
 20
-46.0137
 10
-50.2753
 20
-45.7753
 10
-50.5137
 20
-45.4184
 10
-50.5975
 20
-44.9975
 10
-50.5137
 20
-44.5765
 10
-50.2753
 20
-44.2197
 10
-49.9184
 20
-43.9812
 10
-49.4975
 20
-43.8975
 10
-49.0765
 20
-43.9812
 10
-48.7197
 20
-44.2197
 10
-48.4812
 20
-44.5765
 10
-48.3975
 20
-44.9975
 10
-48.4812
 20
-45.4184
 10
-48.7197
 20
-45.7753
 10
-49.0765
 20
-46.0137
 10
-49.4975
 20
-46.0975
  0
LWPOLYLINE
100
AcDbEntity
  8
0
100
AcDbPolyline
 90
16
 70
1
 10
49.0765
 20
-46.0137
 10
48.7197
 20
-45.7753
 10
48.4812
 20
-45.4184
 10
48.3975
 20
-44.9975
 10
48.4812
 20
-44.5765
 10
48.7197
 20
-44.2197
 10
49.0765
 20
-43.9812
 10
49.4975
 20
-43.8975
 10
49.9184
 20
-43.9812
 10
50.2753
 20
-44.2197
 10
50.5137
 20
-44.5765
 10
50.5975
 20
-44.9975
 10
50.5137
 20
-45.4184
 10
50.2753
 20
-45.7753
 10
49.9184
 20
-46.0137
 10
49.4975
 20
-46.0975
  0
LWPOLYLINE
100
AcDbEntity
  8
0
100
AcDbPolyline
 90
40
 70
1
 10
-49.8103
 20
-51.4729
 10
-50.1155
 20
-51.3996
 10
-50.4055
 20
-51.2795
 10
-50.673
 20
-51.1155
 10
-50.9117
 20
-50.9117
 10
-51.1155
 20
-50.673
 10
-51.2795
 20
-50.4055
 10
-51.3996
 20
-50.1155
 10
-51.4729
 20
-49.8103
 10
-51.4975
 20
-49.4975
 10
-51.4729
 20
-49.1846
 10
-51.3996
 20
-48.8794
 10
-51.2795
 20
-48.5895
 10
-51.1155
 20
-48.3219
 10
-50.9117
 20
-48.0833
 10
-50.673
 20
-47.8794
 10
-50.4055
 20
-47.7155
 10
-50.1155
 20
-47.5954
 10
-49.8103
 20
-47.5221
 10
-49.4975
 20
-47.4975
 10
-49.1846
 20
-47.5221
 10
-48.8794
 20
-47.5954
 10
-48.5895
 20
-47.7155
 10
-48.3219
 20
-47.8794
 10
-48.0833
 20
-48.0833
 10
-47.8794
 20
-48.3219
 10
-47.7155
 20
-48.5895
 10
-47.5954
 20
-48.8794
 10
-47.5221
 20
-49.1846
 10
-47.4975
 20
-49.4975
 10
-47.5221
 20
-49.8103
 10
-47.5954
 20
-50.1155
 10
-47.7155
 20
-50.4055
 10
-47.8794
 20
-50.673
 10
-48.0833
 20
-50.9117
 10
-48.3219
 20
-51.1155
 10
-48.5895
 20
-51.2795
 10
-48.8794
 20
-51.3996
 10
-49.1846
 20
-51.4729
 10
-49.4975
 20
-51.4975
  0
LWPOLYLINE
100
AcDbEntity
  8
0
100
AcDbPolyline
 90
40
 70
1
 10
49.1846
 20
-51.4729
 10
48.8794
 20
-51.3996
 10
48.5895
 20
-51.2795
 10
48.3219
 20
-51.1155
 10
48.0833
 20
-50.9117
 10
47.8794
 20
-50.673
 10
47.7155
 20
-50.4055
 10
47.5954
 20
-50.1155
 10
47.5221
 20
-49.8103
 10
47.4975
 20
-49.4975
 10
47.5221
 20
-49.1846
 10
47.5954
 20
-48.8794
 10
47.7155
 20
-48.5895
 10
47.8794
 20
-48.3219
 10
48.0833
 20
-48.0833
 10
48.3219
 20
-47.8794
 10
48.5895
 20
-47.7155
 10
48.8794
 20
-47.5954
 10
49.1846
 20
-47.5221
 10
49.4975
 20
-47.4975
 10
49.8103
 20
-47.5221
 10
50.1155
 20
-47.5954
 10
50.4055
 20
-47.7155
 10
50.673
 20
-47.8794
 10
50.9117
 20
-48.0833
 10
51.1155
 20
-48.3219
 10
51.2795
 20
-48.5895
 10
51.3996
 20
-48.8794
 10
51.4729
 20
-49.1846
 10
51.4975
 20
-49.4975
 10
51.4729
 20
-49.8103
 10
51.3996
 20
-50.1155
 10
51.2795
 20
-50.4055
 10
51.1155
 20
-50.673
 10
50.9117
 20
-50.9117
 10
50.673
 20
-51.1155
 10
50.4055
 20
-51.2795
 10
50.1155
 20
-51.3996
 10
49.8103
 20
-51.4729
 10
49.4975
 20
-51.4975
  0
LWPOLYLINE
100
AcDbEntity
  8
0
100
AcDbPolyline
 90
16
 70
1
 10
-54.4184
 20
-50.5137
 10
-54.7753
 20
-50.2753
 10
-55.0137
 20
-49.9184
 10
-55.0975
 20
-49.4975
 10
-55.0137
 20
-49.0765
 10
-54.7753
 20
-48.7197
 10
-54.4184
 20
-48.4812
 10
-53.9975
 20
-48.3975
 10
-53.5765
 20
-48.4812
 10
-53.2197
 20
-48.7197
 10
-52.9812
 20
-49.0765
 10
-52.8975
 20
-49.4975
 10
-52.9812
 20
-49.9184
 10
-53.2197
 20
-50.2753
 10
-53.5765
 20
-50.5137
 10
-53.9975
 20
-50.5975
  0
LWPOLYLINE
100
AcDbEntity
  8
0
100
AcDbPolyline
 90
16
 70
1
 10
-45.4184
 20
-50.5137
 10
-45.7753
 20
-50.2753
 10
-46.0137
 20
-49.9184
 10
-46.0975
 20
-49.4975
 10
-46.0137
 20
-49.0765
 10
-45.7753
 20
-48.7197
 10
-45.4184
 20
-48.4812
 10
-44.9975
 20
-48.3975
 10
-44.5765
 20
-48.4812
 10
-44.2197
 20
-48.7197
 10
-43.9812
 20
-49.0765
 10
-43.8975
 20
-49.4975
 10
-43.9812
 20
-49.9184
 10
-44.2197
 20
-50.2753
 10
-44.5765
 20
-50.5137
 10
-44.9975
 20
-50.5975
  0
LWPOLYLINE
100
AcDbEntity
  8
0
100
AcDbPolyline
 90
16
 70
1
 10
44.5765
 20
-50.5137
 10
44.2197
 20
-50.2753
 10
43.9812
 20
-49.9184
 10
43.8975
 20
-49.4975
 10
43.9812
 20
-49.0765
 10
44.2197
 20
-48.7197
 10
44.5765
 20
-48.4812
 10
44.9975
 20
-48.3975
 10
45.4184
 20
-48.4812
 10
45.7753
 20
-48.7197
 10
46.0137
 20
-49.0765
 10
46.0975
 20
-49.4975
 10
46.0137
 20
-49.9184
 10
45.7753
 20
-50.2753
 10
45.4184
 20
-50.5137
 10
44.9975
 20
-50.5975
  0
LWPOLYLINE
100
AcDbEntity
  8
0
100
AcDbPolyline
 90
16
 70
1
 10
53.5765
 20
-50.5137
 10
53.2197
 20
-50.2753
 10
52.9812
 20
-49.9184
 10
52.8975
 20
-49.4975
 10
52.9812
 20
-49.0765
 10
53.2197
 20
-48.7197
 10
53.5765
 20
-48.4812
 10
53.9975
 20
-48.3975
 10
54.4184
 20
-48.4812
 10
54.7753
 20
-48.7197
 10
55.0137
 20
-49.0765
 10
55.0975
 20
-49.4975
 10
55.0137
 20
-49.9184
 10
54.7753
 20
-50.2753
 10
54.4184
 20
-50.5137
 10
53.9975
 20
-50.5975
  0
LWPOLYLINE
100
AcDbEntity
  8
0
100
AcDbPolyline
 90
16
 70
1
 10
-49.9184
 20
-55.0137
 10
-50.2753
 20
-54.7753
 10
-50.5137
 20
-54.4184
 10
-50.5975
 20
-53.9975
 10
-50.5137
 20
-53.5765
 10
-50.2753
 20
-53.2197
 10
-49.9184
 20
-52.9812
 10
-49.4975
 20
-52.8975
 10
-49.0765
 20
-52.9812
 10
-48.7197
 20
-53.2197
 10
-48.4812
 20
-53.5765
 10
-48.3975
 20
-53.9975
 10
-48.4812
 20
-54.4184
 10
-48.7197
 20
-54.7753
 10
-49.0765
 20
-55.0137
 10
-49.4975
 20
-55.0975
  0
LWPOLYLINE
100
AcDbEntity
  8
0
100
AcDbPolyline
 90
16
 70
1
 10
49.0765
 20
-55.0137
 10
48.7197
 20
-54.7753
 10
48.4812
 20
-54.4184
 10
48.3975
 20
-53.9975
 10
48.4812
 20
-53.5765
 10
48.7197
 20
-53.2197
 10
49.0765
 20
-52.9812
 10
49.4975
 20
-52.8975
 10
49.9184
 20
-52.9812
 10
50.2753
 20
-53.2197
 10
50.5137
 20
-53.5765
 10
50.5975
 20
-53.9975
 10
50.5137
 20
-54.4184
 10
50.2753
 20
-54.7753
 10
49.9184
 20
-55.0137
 10
49.4975
 20
-55.0975
  0
ENDSEC
  0
EOF
